<svg width="120" height="80" viewBox="0 0 120 80" fill="none" xmlns="http://www.w3.org/2000/svg">
<g filter="url(#filter0_i)">
<rect width="120" height="80" fill="white"/>
</g>
<rect x="0.5" y="0.5" width="119" height="79" stroke="black"/>
<g filter="url(#filter1_dddd)">
<path d="M20.9766 57H15.2812V21H20.9766V57ZM33.2578 57H27.5625V31.6406H33.2578V57ZM27.2109 25.0547C27.2109 24.1797 27.4844 23.4531 28.0312 22.875C28.5938 22.2969 29.3906 22.0078 30.4219 22.0078C31.4531 22.0078 32.25 22.2969 32.8125 22.875C33.375 23.4531 33.6562 24.1797 33.6562 25.0547C33.6562 25.9141 33.375 26.6328 32.8125 27.2109C32.25 27.7734 31.4531 28.0547 30.4219 28.0547C29.3906 28.0547 28.5938 27.7734 28.0312 27.2109C27.4844 26.6328 27.2109 25.9141 27.2109 25.0547ZM38.4141 44.1328C38.4141 40.2266 39.3203 37.0938 41.1328 34.7344C42.9453 32.3594 45.375 31.1719 48.4219 31.1719C51.1094 31.1719 53.2812 32.1094 54.9375 33.9844V21H60.6328V57H55.4766L55.1953 54.375C53.4922 56.4375 51.2188 57.4688 48.375 57.4688C45.4062 57.4688 43 56.2734 41.1562 53.8828C39.3281 51.4922 38.4141 48.2422 38.4141 44.1328ZM44.1094 44.625C44.1094 47.2031 44.6016 49.2188 45.5859 50.6719C46.5859 52.1094 48 52.8281 49.8281 52.8281C52.1562 52.8281 53.8594 51.7891 54.9375 49.7109V38.8828C53.8906 36.8516 52.2031 35.8359 49.875 35.8359C48.0312 35.8359 46.6094 36.5703 45.6094 38.0391C44.6094 39.4922 44.1094 41.6875 44.1094 44.625ZM72.6328 57H66.9375V31.6406H72.6328V57ZM66.5859 25.0547C66.5859 24.1797 66.8594 23.4531 67.4062 22.875C67.9688 22.2969 68.7656 22.0078 69.7969 22.0078C70.8281 22.0078 71.625 22.2969 72.1875 22.875C72.75 23.4531 73.0312 24.1797 73.0312 25.0547C73.0312 25.9141 72.75 26.6328 72.1875 27.2109C71.625 27.7734 70.8281 28.0547 69.7969 28.0547C68.7656 28.0547 67.9688 27.7734 67.4062 27.2109C66.8594 26.6328 66.5859 25.9141 66.5859 25.0547ZM85.9922 25.4766V31.6406H90.4688V35.8594H85.9922V50.0156C85.9922 50.9844 86.1797 51.6875 86.5547 52.125C86.9453 52.5469 87.6328 52.7578 88.6172 52.7578C89.2734 52.7578 89.9375 52.6797 90.6094 52.5234V56.9297C89.3125 57.2891 88.0625 57.4688 86.8594 57.4688C82.4844 57.4688 80.2969 55.0547 80.2969 50.2266V35.8594H76.125V31.6406H80.2969V25.4766H85.9922Z" fill="black"/>
<path d="M20.9766 57V58H21.9766V57H20.9766ZM15.2812 57H14.2812V58H15.2812V57ZM15.2812 21V20H14.2812V21H15.2812ZM20.9766 21H21.9766V20H20.9766V21ZM20.9766 56H15.2812V58H20.9766V56ZM16.2812 57V21H14.2812V57H16.2812ZM15.2812 22H20.9766V20H15.2812V22ZM19.9766 21V57H21.9766V21H19.9766ZM33.2578 57V58H34.2578V57H33.2578ZM27.5625 57H26.5625V58H27.5625V57ZM27.5625 31.6406V30.6406H26.5625V31.6406H27.5625ZM33.2578 31.6406H34.2578V30.6406H33.2578V31.6406ZM28.0312 22.875L27.3145 22.1776L27.3048 22.1878L28.0312 22.875ZM32.8125 27.2109L33.5197 27.9181L33.5292 27.9083L32.8125 27.2109ZM28.0312 27.2109L27.3048 27.8981L27.3143 27.9082L27.3241 27.918L28.0312 27.2109ZM33.2578 56H27.5625V58H33.2578V56ZM28.5625 57V31.6406H26.5625V57H28.5625ZM27.5625 32.6406H33.2578V30.6406H27.5625V32.6406ZM32.2578 31.6406V57H34.2578V31.6406H32.2578ZM28.2109 25.0547C28.2109 24.4076 28.4047 23.9354 28.7577 23.5622L27.3048 22.1878C26.5641 22.9708 26.2109 23.9518 26.2109 25.0547H28.2109ZM28.748 23.5724C29.0734 23.2379 29.5814 23.0078 30.4219 23.0078V21.0078C29.1998 21.0078 28.1141 21.3558 27.3145 22.1776L28.748 23.5724ZM30.4219 23.0078C31.2623 23.0078 31.7704 23.2379 32.0958 23.5724L33.5292 22.1776C32.7296 21.3558 31.6439 21.0078 30.4219 21.0078V23.0078ZM32.0958 23.5724C32.4604 23.9471 32.6562 24.4159 32.6562 25.0547H34.6562C34.6562 23.9435 34.2896 22.9591 33.5292 22.1776L32.0958 23.5724ZM32.6562 25.0547C32.6562 25.6724 32.4639 26.1352 32.0958 26.5136L33.5292 27.9083C34.2861 27.1304 34.6562 26.1557 34.6562 25.0547H32.6562ZM32.1054 26.5038C31.7814 26.8278 31.2699 27.0547 30.4219 27.0547V29.0547C31.6363 29.0547 32.7186 28.719 33.5196 27.918L32.1054 26.5038ZM30.4219 27.0547C29.5738 27.0547 29.0624 26.8278 28.7384 26.5038L27.3241 27.918C28.1251 28.719 29.2074 29.0547 30.4219 29.0547V27.0547ZM28.7577 26.5237C28.4013 26.1469 28.2109 25.6808 28.2109 25.0547H26.2109C26.2109 26.1473 26.5675 27.1187 27.3048 27.8981L28.7577 26.5237ZM41.1328 34.7344L41.9258 35.3436L41.9278 35.341L41.1328 34.7344ZM54.9375 33.9844L54.188 34.6464L55.9375 36.6269V33.9844H54.9375ZM54.9375 21V20H53.9375V21H54.9375ZM60.6328 21H61.6328V20H60.6328V21ZM60.6328 57V58H61.6328V57H60.6328ZM55.4766 57L54.4823 57.1065L54.578 58H55.4766V57ZM55.1953 54.375L56.1896 54.2685L55.9366 51.9068L54.4242 53.7383L55.1953 54.375ZM41.1562 53.8828L40.3619 54.4903L40.3644 54.4935L41.1562 53.8828ZM45.5859 50.6719L44.758 51.2328L44.765 51.2429L45.5859 50.6719ZM54.9375 49.7109L55.8252 50.1714L55.9375 49.9549V49.7109H54.9375ZM54.9375 38.8828H55.9375V38.6403L55.8264 38.4247L54.9375 38.8828ZM45.6094 38.0391L46.4332 38.606L46.436 38.6019L45.6094 38.0391ZM39.4141 44.1328C39.4141 40.3778 40.2843 37.4804 41.9258 35.3436L40.3398 34.1252C38.3563 36.7071 37.4141 40.0753 37.4141 44.1328H39.4141ZM41.9278 35.341C43.5467 33.2196 45.6795 32.1719 48.4219 32.1719V30.1719C45.0705 30.1719 42.3439 31.4991 40.3379 34.1277L41.9278 35.341ZM48.4219 32.1719C50.8467 32.1719 52.7369 33.0037 54.188 34.6464L55.687 33.3223C53.8256 31.2151 51.3721 30.1719 48.4219 30.1719V32.1719ZM55.9375 33.9844V21H53.9375V33.9844H55.9375ZM54.9375 22H60.6328V20H54.9375V22ZM59.6328 21V57H61.6328V21H59.6328ZM60.6328 56H55.4766V58H60.6328V56ZM56.4709 56.8935L56.1896 54.2685L54.201 54.4815L54.4823 57.1065L56.4709 56.8935ZM54.4242 53.7383C52.9244 55.5546 50.942 56.4688 48.375 56.4688V58.4688C51.4955 58.4688 54.06 57.3204 55.9664 55.0117L54.4242 53.7383ZM48.375 56.4688C45.7224 56.4688 43.6063 55.4221 41.9481 53.2721L40.3644 54.4935C42.3937 57.1248 45.0901 58.4688 48.375 58.4688V56.4688ZM41.9506 53.2754C40.2971 51.1131 39.4141 48.1018 39.4141 44.1328H37.4141C37.4141 48.3826 38.3592 51.8713 40.3619 54.4903L41.9506 53.2754ZM43.1094 44.625C43.1094 47.3142 43.6203 49.5533 44.758 51.2327L46.4139 50.111C45.5828 48.8842 45.1094 47.092 45.1094 44.625H43.1094ZM44.765 51.2429C45.9615 52.9629 47.6897 53.8281 49.8281 53.8281V51.8281C48.3103 51.8281 47.2104 51.2559 46.4068 50.1008L44.765 51.2429ZM49.8281 53.8281C51.1448 53.8281 52.3394 53.5327 53.3724 52.9025C54.4051 52.2724 55.2168 51.3441 55.8252 50.1714L54.0498 49.2504C53.5801 50.1559 53.0012 50.7861 52.3307 51.1952C51.6606 51.604 50.8396 51.8281 49.8281 51.8281V53.8281ZM55.9375 49.7109V38.8828H53.9375V49.7109H55.9375ZM55.8264 38.4247C55.2318 37.271 54.4292 36.3589 53.4024 35.7409C52.3766 35.1235 51.1874 34.8359 49.875 34.8359V36.8359C50.8907 36.8359 51.7093 37.0562 52.3711 37.4544C53.0317 37.8521 53.5963 38.4634 54.0486 39.3409L55.8264 38.4247ZM49.875 34.8359C47.7152 34.8359 45.9772 35.7219 44.7828 37.4763L46.436 38.6019C47.2415 37.4187 48.3473 36.8359 49.875 36.8359V34.8359ZM44.7856 37.4722C43.6172 39.1699 43.1094 41.6065 43.1094 44.625H45.1094C45.1094 41.7685 45.6015 39.8144 46.4332 38.606L44.7856 37.4722ZM72.6328 57V58H73.6328V57H72.6328ZM66.9375 57H65.9375V58H66.9375V57ZM66.9375 31.6406V30.6406H65.9375V31.6406H66.9375ZM72.6328 31.6406H73.6328V30.6406H72.6328V31.6406ZM67.4062 22.875L66.6895 22.1776L66.6798 22.1878L67.4062 22.875ZM72.1875 27.2109L72.8947 27.9181L72.9042 27.9083L72.1875 27.2109ZM67.4062 27.2109L66.6798 27.8981L66.6893 27.9082L66.6991 27.918L67.4062 27.2109ZM72.6328 56H66.9375V58H72.6328V56ZM67.9375 57V31.6406H65.9375V57H67.9375ZM66.9375 32.6406H72.6328V30.6406H66.9375V32.6406ZM71.6328 31.6406V57H73.6328V31.6406H71.6328ZM67.5859 25.0547C67.5859 24.4076 67.7797 23.9354 68.1327 23.5622L66.6798 22.1878C65.9391 22.9708 65.5859 23.9518 65.5859 25.0547H67.5859ZM68.123 23.5724C68.4484 23.2379 68.9564 23.0078 69.7969 23.0078V21.0078C68.5748 21.0078 67.4891 21.3558 66.6895 22.1776L68.123 23.5724ZM69.7969 23.0078C70.6373 23.0078 71.1454 23.2379 71.4708 23.5724L72.9042 22.1776C72.1046 21.3558 71.0189 21.0078 69.7969 21.0078V23.0078ZM71.4708 23.5724C71.8354 23.9471 72.0312 24.4159 72.0312 25.0547H74.0312C74.0312 23.9435 73.6646 22.9591 72.9042 22.1776L71.4708 23.5724ZM72.0312 25.0547C72.0312 25.6724 71.8389 26.1352 71.4708 26.5136L72.9042 27.9083C73.6611 27.1304 74.0312 26.1557 74.0312 25.0547H72.0312ZM71.4804 26.5038C71.1564 26.8278 70.6449 27.0547 69.7969 27.0547V29.0547C71.0113 29.0547 72.0936 28.719 72.8946 27.918L71.4804 26.5038ZM69.7969 27.0547C68.9488 27.0547 68.4374 26.8278 68.1134 26.5038L66.6991 27.918C67.5001 28.719 68.5824 29.0547 69.7969 29.0547V27.0547ZM68.1327 26.5237C67.7763 26.1469 67.5859 25.6808 67.5859 25.0547H65.5859C65.5859 26.1473 65.9425 27.1187 66.6798 27.8981L68.1327 26.5237ZM85.9922 25.4766H86.9922V24.4766H85.9922V25.4766ZM85.9922 31.6406H84.9922V32.6406H85.9922V31.6406ZM90.4688 31.6406H91.4688V30.6406H90.4688V31.6406ZM90.4688 35.8594V36.8594H91.4688V35.8594H90.4688ZM85.9922 35.8594V34.8594H84.9922V35.8594H85.9922ZM86.5547 52.125L85.7954 52.7758L85.8079 52.7903L85.8209 52.8044L86.5547 52.125ZM90.6094 52.5234H91.6094V51.2642L90.3829 51.5494L90.6094 52.5234ZM90.6094 56.9297L90.8764 57.8934L91.6094 57.6903V56.9297H90.6094ZM80.2969 35.8594H81.2969V34.8594H80.2969V35.8594ZM76.125 35.8594H75.125V36.8594H76.125V35.8594ZM76.125 31.6406V30.6406H75.125V31.6406H76.125ZM80.2969 31.6406V32.6406H81.2969V31.6406H80.2969ZM80.2969 25.4766V24.4766H79.2969V25.4766H80.2969ZM84.9922 25.4766V31.6406H86.9922V25.4766H84.9922ZM85.9922 32.6406H90.4688V30.6406H85.9922V32.6406ZM89.4688 31.6406V35.8594H91.4688V31.6406H89.4688ZM90.4688 34.8594H85.9922V36.8594H90.4688V34.8594ZM84.9922 35.8594V50.0156H86.9922V35.8594H84.9922ZM84.9922 50.0156C84.9922 51.0732 85.1895 52.0688 85.7954 52.7758L87.3139 51.4742C87.1699 51.3062 86.9922 50.8956 86.9922 50.0156H84.9922ZM85.8209 52.8044C86.4987 53.5364 87.5418 53.7578 88.6172 53.7578V51.7578C87.7238 51.7578 87.3919 51.5573 87.2884 51.4456L85.8209 52.8044ZM88.6172 53.7578C89.3535 53.7578 90.0935 53.6701 90.8359 53.4974L90.3829 51.5494C89.7815 51.6893 89.1934 51.7578 88.6172 51.7578V53.7578ZM89.6094 52.5234V56.9297H91.6094V52.5234H89.6094ZM90.3423 55.966C89.1223 56.3041 87.9623 56.4688 86.8594 56.4688V58.4688C88.1627 58.4688 89.5027 58.274 90.8764 57.8934L90.3423 55.966ZM86.8594 56.4688C84.8528 56.4688 83.5239 55.9197 82.6785 54.9867C81.8162 54.0351 81.2969 52.5095 81.2969 50.2266H79.2969C79.2969 52.7717 79.8713 54.8673 81.1965 56.3297C82.5386 57.8108 84.4909 58.4688 86.8594 58.4688V56.4688ZM81.2969 50.2266V35.8594H79.2969V50.2266H81.2969ZM80.2969 34.8594H76.125V36.8594H80.2969V34.8594ZM77.125 35.8594V31.6406H75.125V35.8594H77.125ZM76.125 32.6406H80.2969V30.6406H76.125V32.6406ZM81.2969 31.6406V25.4766H79.2969V31.6406H81.2969ZM80.2969 26.4766H85.9922V24.4766H80.2969V26.4766Z" fill="white"/>
<path d="M20.9766 57V58H21.9766V57H20.9766ZM15.2812 57H14.2812V58H15.2812V57ZM15.2812 21V20H14.2812V21H15.2812ZM20.9766 21H21.9766V20H20.9766V21ZM20.9766 56H15.2812V58H20.9766V56ZM16.2812 57V21H14.2812V57H16.2812ZM15.2812 22H20.9766V20H15.2812V22ZM19.9766 21V57H21.9766V21H19.9766ZM33.2578 57V58H34.2578V57H33.2578ZM27.5625 57H26.5625V58H27.5625V57ZM27.5625 31.6406V30.6406H26.5625V31.6406H27.5625ZM33.2578 31.6406H34.2578V30.6406H33.2578V31.6406ZM28.0312 22.875L27.3145 22.1776L27.3048 22.1878L28.0312 22.875ZM32.8125 27.2109L33.5197 27.9181L33.5292 27.9083L32.8125 27.2109ZM28.0312 27.2109L27.3048 27.8981L27.3143 27.9082L27.3241 27.918L28.0312 27.2109ZM33.2578 56H27.5625V58H33.2578V56ZM28.5625 57V31.6406H26.5625V57H28.5625ZM27.5625 32.6406H33.2578V30.6406H27.5625V32.6406ZM32.2578 31.6406V57H34.2578V31.6406H32.2578ZM28.2109 25.0547C28.2109 24.4076 28.4047 23.9354 28.7577 23.5622L27.3048 22.1878C26.5641 22.9708 26.2109 23.9518 26.2109 25.0547H28.2109ZM28.748 23.5724C29.0734 23.2379 29.5814 23.0078 30.4219 23.0078V21.0078C29.1998 21.0078 28.1141 21.3558 27.3145 22.1776L28.748 23.5724ZM30.4219 23.0078C31.2623 23.0078 31.7704 23.2379 32.0958 23.5724L33.5292 22.1776C32.7296 21.3558 31.6439 21.0078 30.4219 21.0078V23.0078ZM32.0958 23.5724C32.4604 23.9471 32.6562 24.4159 32.6562 25.0547H34.6562C34.6562 23.9435 34.2896 22.9591 33.5292 22.1776L32.0958 23.5724ZM32.6562 25.0547C32.6562 25.6724 32.4639 26.1352 32.0958 26.5136L33.5292 27.9083C34.2861 27.1304 34.6562 26.1557 34.6562 25.0547H32.6562ZM32.1054 26.5038C31.7814 26.8278 31.2699 27.0547 30.4219 27.0547V29.0547C31.6363 29.0547 32.7186 28.719 33.5196 27.918L32.1054 26.5038ZM30.4219 27.0547C29.5738 27.0547 29.0624 26.8278 28.7384 26.5038L27.3241 27.918C28.1251 28.719 29.2074 29.0547 30.4219 29.0547V27.0547ZM28.7577 26.5237C28.4013 26.1469 28.2109 25.6808 28.2109 25.0547H26.2109C26.2109 26.1473 26.5675 27.1187 27.3048 27.8981L28.7577 26.5237ZM41.1328 34.7344L41.9258 35.3436L41.9278 35.341L41.1328 34.7344ZM54.9375 33.9844L54.188 34.6464L55.9375 36.6269V33.9844H54.9375ZM54.9375 21V20H53.9375V21H54.9375ZM60.6328 21H61.6328V20H60.6328V21ZM60.6328 57V58H61.6328V57H60.6328ZM55.4766 57L54.4823 57.1065L54.578 58H55.4766V57ZM55.1953 54.375L56.1896 54.2685L55.9366 51.9068L54.4242 53.7383L55.1953 54.375ZM41.1562 53.8828L40.3619 54.4903L40.3644 54.4935L41.1562 53.8828ZM45.5859 50.6719L44.758 51.2328L44.765 51.2429L45.5859 50.6719ZM54.9375 49.7109L55.8252 50.1714L55.9375 49.9549V49.7109H54.9375ZM54.9375 38.8828H55.9375V38.6403L55.8264 38.4247L54.9375 38.8828ZM45.6094 38.0391L46.4332 38.606L46.436 38.6019L45.6094 38.0391ZM39.4141 44.1328C39.4141 40.3778 40.2843 37.4804 41.9258 35.3436L40.3398 34.1252C38.3563 36.7071 37.4141 40.0753 37.4141 44.1328H39.4141ZM41.9278 35.341C43.5467 33.2196 45.6795 32.1719 48.4219 32.1719V30.1719C45.0705 30.1719 42.3439 31.4991 40.3379 34.1277L41.9278 35.341ZM48.4219 32.1719C50.8467 32.1719 52.7369 33.0037 54.188 34.6464L55.687 33.3223C53.8256 31.2151 51.3721 30.1719 48.4219 30.1719V32.1719ZM55.9375 33.9844V21H53.9375V33.9844H55.9375ZM54.9375 22H60.6328V20H54.9375V22ZM59.6328 21V57H61.6328V21H59.6328ZM60.6328 56H55.4766V58H60.6328V56ZM56.4709 56.8935L56.1896 54.2685L54.201 54.4815L54.4823 57.1065L56.4709 56.8935ZM54.4242 53.7383C52.9244 55.5546 50.942 56.4688 48.375 56.4688V58.4688C51.4955 58.4688 54.06 57.3204 55.9664 55.0117L54.4242 53.7383ZM48.375 56.4688C45.7224 56.4688 43.6063 55.4221 41.9481 53.2721L40.3644 54.4935C42.3937 57.1248 45.0901 58.4688 48.375 58.4688V56.4688ZM41.9506 53.2754C40.2971 51.1131 39.4141 48.1018 39.4141 44.1328H37.4141C37.4141 48.3826 38.3592 51.8713 40.3619 54.4903L41.9506 53.2754ZM43.1094 44.625C43.1094 47.3142 43.6203 49.5533 44.758 51.2327L46.4139 50.111C45.5828 48.8842 45.1094 47.092 45.1094 44.625H43.1094ZM44.765 51.2429C45.9615 52.9629 47.6897 53.8281 49.8281 53.8281V51.8281C48.3103 51.8281 47.2104 51.2559 46.4068 50.1008L44.765 51.2429ZM49.8281 53.8281C51.1448 53.8281 52.3394 53.5327 53.3724 52.9025C54.4051 52.2724 55.2168 51.3441 55.8252 50.1714L54.0498 49.2504C53.5801 50.1559 53.0012 50.7861 52.3307 51.1952C51.6606 51.604 50.8396 51.8281 49.8281 51.8281V53.8281ZM55.9375 49.7109V38.8828H53.9375V49.7109H55.9375ZM55.8264 38.4247C55.2318 37.271 54.4292 36.3589 53.4024 35.7409C52.3766 35.1235 51.1874 34.8359 49.875 34.8359V36.8359C50.8907 36.8359 51.7093 37.0562 52.3711 37.4544C53.0317 37.8521 53.5963 38.4634 54.0486 39.3409L55.8264 38.4247ZM49.875 34.8359C47.7152 34.8359 45.9772 35.7219 44.7828 37.4763L46.436 38.6019C47.2415 37.4187 48.3473 36.8359 49.875 36.8359V34.8359ZM44.7856 37.4722C43.6172 39.1699 43.1094 41.6065 43.1094 44.625H45.1094C45.1094 41.7685 45.6015 39.8144 46.4332 38.606L44.7856 37.4722ZM72.6328 57V58H73.6328V57H72.6328ZM66.9375 57H65.9375V58H66.9375V57ZM66.9375 31.6406V30.6406H65.9375V31.6406H66.9375ZM72.6328 31.6406H73.6328V30.6406H72.6328V31.6406ZM67.4062 22.875L66.6895 22.1776L66.6798 22.1878L67.4062 22.875ZM72.1875 27.2109L72.8947 27.9181L72.9042 27.9083L72.1875 27.2109ZM67.4062 27.2109L66.6798 27.8981L66.6893 27.9082L66.6991 27.918L67.4062 27.2109ZM72.6328 56H66.9375V58H72.6328V56ZM67.9375 57V31.6406H65.9375V57H67.9375ZM66.9375 32.6406H72.6328V30.6406H66.9375V32.6406ZM71.6328 31.6406V57H73.6328V31.6406H71.6328ZM67.5859 25.0547C67.5859 24.4076 67.7797 23.9354 68.1327 23.5622L66.6798 22.1878C65.9391 22.9708 65.5859 23.9518 65.5859 25.0547H67.5859ZM68.123 23.5724C68.4484 23.2379 68.9564 23.0078 69.7969 23.0078V21.0078C68.5748 21.0078 67.4891 21.3558 66.6895 22.1776L68.123 23.5724ZM69.7969 23.0078C70.6373 23.0078 71.1454 23.2379 71.4708 23.5724L72.9042 22.1776C72.1046 21.3558 71.0189 21.0078 69.7969 21.0078V23.0078ZM71.4708 23.5724C71.8354 23.9471 72.0312 24.4159 72.0312 25.0547H74.0312C74.0312 23.9435 73.6646 22.9591 72.9042 22.1776L71.4708 23.5724ZM72.0312 25.0547C72.0312 25.6724 71.8389 26.1352 71.4708 26.5136L72.9042 27.9083C73.6611 27.1304 74.0312 26.1557 74.0312 25.0547H72.0312ZM71.4804 26.5038C71.1564 26.8278 70.6449 27.0547 69.7969 27.0547V29.0547C71.0113 29.0547 72.0936 28.719 72.8946 27.918L71.4804 26.5038ZM69.7969 27.0547C68.9488 27.0547 68.4374 26.8278 68.1134 26.5038L66.6991 27.918C67.5001 28.719 68.5824 29.0547 69.7969 29.0547V27.0547ZM68.1327 26.5237C67.7763 26.1469 67.5859 25.6808 67.5859 25.0547H65.5859C65.5859 26.1473 65.9425 27.1187 66.6798 27.8981L68.1327 26.5237ZM85.9922 25.4766H86.9922V24.4766H85.9922V25.4766ZM85.9922 31.6406H84.9922V32.6406H85.9922V31.6406ZM90.4688 31.6406H91.4688V30.6406H90.4688V31.6406ZM90.4688 35.8594V36.8594H91.4688V35.8594H90.4688ZM85.9922 35.8594V34.8594H84.9922V35.8594H85.9922ZM86.5547 52.125L85.7954 52.7758L85.8079 52.7903L85.8209 52.8044L86.5547 52.125ZM90.6094 52.5234H91.6094V51.2642L90.3829 51.5494L90.6094 52.5234ZM90.6094 56.9297L90.8764 57.8934L91.6094 57.6903V56.9297H90.6094ZM80.2969 35.8594H81.2969V34.8594H80.2969V35.8594ZM76.125 35.8594H75.125V36.8594H76.125V35.8594ZM76.125 31.6406V30.6406H75.125V31.6406H76.125ZM80.2969 31.6406V32.6406H81.2969V31.6406H80.2969ZM80.2969 25.4766V24.4766H79.2969V25.4766H80.2969ZM84.9922 25.4766V31.6406H86.9922V25.4766H84.9922ZM85.9922 32.6406H90.4688V30.6406H85.9922V32.6406ZM89.4688 31.6406V35.8594H91.4688V31.6406H89.4688ZM90.4688 34.8594H85.9922V36.8594H90.4688V34.8594ZM84.9922 35.8594V50.0156H86.9922V35.8594H84.9922ZM84.9922 50.0156C84.9922 51.0732 85.1895 52.0688 85.7954 52.7758L87.3139 51.4742C87.1699 51.3062 86.9922 50.8956 86.9922 50.0156H84.9922ZM85.8209 52.8044C86.4987 53.5364 87.5418 53.7578 88.6172 53.7578V51.7578C87.7238 51.7578 87.3919 51.5573 87.2884 51.4456L85.8209 52.8044ZM88.6172 53.7578C89.3535 53.7578 90.0935 53.6701 90.8359 53.4974L90.3829 51.5494C89.7815 51.6893 89.1934 51.7578 88.6172 51.7578V53.7578ZM89.6094 52.5234V56.9297H91.6094V52.5234H89.6094ZM90.3423 55.966C89.1223 56.3041 87.9623 56.4688 86.8594 56.4688V58.4688C88.1627 58.4688 89.5027 58.274 90.8764 57.8934L90.3423 55.966ZM86.8594 56.4688C84.8528 56.4688 83.5239 55.9197 82.6785 54.9867C81.8162 54.0351 81.2969 52.5095 81.2969 50.2266H79.2969C79.2969 52.7717 79.8713 54.8673 81.1965 56.3297C82.5386 57.8108 84.4909 58.4688 86.8594 58.4688V56.4688ZM81.2969 50.2266V35.8594H79.2969V50.2266H81.2969ZM80.2969 34.8594H76.125V36.8594H80.2969V34.8594ZM77.125 35.8594V31.6406H75.125V35.8594H77.125ZM76.125 32.6406H80.2969V30.6406H76.125V32.6406ZM81.2969 31.6406V25.4766H79.2969V31.6406H81.2969ZM80.2969 26.4766H85.9922V24.4766H80.2969V26.4766Z" fill="url(#paint0_linear)"/>
</g>
<defs>
<filter id="filter0_i" x="0" y="0" width="120" height="84" filterUnits="userSpaceOnUse" color-interpolation-filters="sRGB">
<feFlood flood-opacity="0" result="BackgroundImageFix"/>
<feBlend mode="normal" in="SourceGraphic" in2="BackgroundImageFix" result="shape"/>
<feColorMatrix in="SourceAlpha" type="matrix" values="0 0 0 0 0 0 0 0 0 0 0 0 0 0 0 0 0 0 127 0" result="hardAlpha"/>
<feOffset dy="4"/>
<feGaussianBlur stdDeviation="2"/>
<feComposite in2="hardAlpha" operator="arithmetic" k2="-1" k3="1"/>
<feColorMatrix type="matrix" values="0 0 0 0 0 0 0 0 0 0 0 0 0 0 0 0 0 0 0.25 0"/>
<feBlend mode="normal" in2="shape" result="effect1_innerShadow"/>
</filter>
<filter id="filter1_dddd" x="10.2812" y="20" width="85.3281" height="46.4688" filterUnits="userSpaceOnUse" color-interpolation-filters="sRGB">
<feFlood flood-opacity="0" result="BackgroundImageFix"/>
<feColorMatrix in="SourceAlpha" type="matrix" values="0 0 0 0 0 0 0 0 0 0 0 0 0 0 0 0 0 0 127 0"/>
<feOffset dy="4"/>
<feGaussianBlur stdDeviation="2"/>
<feColorMatrix type="matrix" values="0 0 0 0 0 0 0 0 0 0 0 0 0 0 0 0 0 0 0.25 0"/>
<feBlend mode="normal" in2="BackgroundImageFix" result="effect1_dropShadow"/>
<feColorMatrix in="SourceAlpha" type="matrix" values="0 0 0 0 0 0 0 0 0 0 0 0 0 0 0 0 0 0 127 0"/>
<feOffset dy="4"/>
<feGaussianBlur stdDeviation="2"/>
<feColorMatrix type="matrix" values="0 0 0 0 0 0 0 0 0 0 0 0 0 0 0 0 0 0 0.25 0"/>
<feBlend mode="normal" in2="effect1_dropShadow" result="effect2_dropShadow"/>
<feColorMatrix in="SourceAlpha" type="matrix" values="0 0 0 0 0 0 0 0 0 0 0 0 0 0 0 0 0 0 127 0"/>
<feOffset dy="4"/>
<feGaussianBlur stdDeviation="2"/>
<feColorMatrix type="matrix" values="0 0 0 0 0 0 0 0 0 0 0 0 0 0 0 0 0 0 0.25 0"/>
<feBlend mode="normal" in2="effect2_dropShadow" result="effect3_dropShadow"/>
<feColorMatrix in="SourceAlpha" type="matrix" values="0 0 0 0 0 0 0 0 0 0 0 0 0 0 0 0 0 0 127 0"/>
<feOffset dy="4"/>
<feGaussianBlur stdDeviation="2"/>
<feColorMatrix type="matrix" values="0 0 0 0 0 0 0 0 0 0 0 0 0 0 0 0 0 0 0.25 0"/>
<feBlend mode="normal" in2="effect3_dropShadow" result="effect4_dropShadow"/>
<feBlend mode="normal" in="SourceGraphic" in2="effect4_dropShadow" result="shape"/>
</filter>
<linearGradient id="paint0_linear" x1="52" y1="13" x2="52" y2="69" gradientUnits="userSpaceOnUse">
<stop stop-color="white"/>
<stop offset="1" stop-color="white" stop-opacity="0"/>
</linearGradient>
</defs>
</svg>
